,
.   http://www.scenetime.com/signup.php  ---&gt;  Hottest scene tracker on the net !!!  

    Join Now   http://www.scenetime.com/signup.php

    seed back for speed


 



...................................NFO:.................................................Video
ID                               : 0
Format                           : MPEG-4 Visual
Format profile                   : Advanced Simple@L5
Format settings, BVOP            : Yes
Format settings, QPel            : No
Format settings, GMC             : No warppoints
Format settings, Matrix          : Default (H.263)
Codec ID                         : XVID
Codec ID/Hint                    : XviD
Duration                         : 1h 34mn
Bit rate                         : 799 Kbps
Width                            : 720 pixels
Height                           : 404 pixels
Display aspect ratio             : 16:9
Frame rate                       : 25.000 fps
Color space                      : YUV
Chroma subsampling               : 4:2:0
Bit depth                        : 8 bits
Scan type                        : Progressive
Bits/(Pixel*Frame)               : 0.110
Stream size                      : 538 MiB (64%)
Writing library                  : XviD 1.2.1 (UTC 2008-12-04)

Audio
ID                               : 1
Format                           : AC-3
Format/Info                      : Audio Coding 3
Mode extension                   : CM (complete main)
Codec ID                         : 2000
Duration                         : 1h 34mn
Bit rate mode                    : Constant
Bit rate                         : 448 Kbps
Channel(s)                       : 6 channels
Channel positions                : Front: L C R, Side: L R, LFE
Sampling rate                    : 48.0 KHz
Bit depth                        : 16 bits
Video delay                      : 40ms
Stream size                      : 302 MiB (36%)
Alignment                        : Split accross interleaves
Interleave, duration             : 500 ms (12.50 video frames)
Interleave, preload duration     : 500 ms